<svg xmlns="http://www.w3.org/2000/svg" viewBox="0 0 100 100" data-tags="taco,mexican,food,shell,street,tuesday">
  <title>A hard taco shell standing up with filling and lettuce.</title>
  <desc>A taco. Mexican food, Tuesdays, street food. Shell accent, filling ink, lettuce paper, salsa accent2.</desc>
  <path data-tone="accent" d="M 16 70 Q 16 22 50 18 Q 84 22 84 70 Q 50 82 16 70 Z"/>
  <path data-tone="ink" d="M 28 48 A 22 14 0 1 1 72 48 A 22 14 0 1 1 28 48 Z"/>
  <path data-tone="paper" d="M 32 36 L 40 22 L 48 36 Z M 52 34 L 60 18 L 66 36 Z"/>
  <path data-tone="accent2" d="M 38 52 A 4 4 0 1 1 46 52 A 4 4 0 1 1 38 52 Z M 54 56 A 4 4 0 1 1 62 56 A 4 4 0 1 1 54 56 Z"/>
</svg>
